<svg id="noun-arrow-next-2663449_1_" data-name="noun-arrow-next-2663449 (1)" xmlns="http://www.w3.org/2000/svg" width="19.6" height="12.29" viewBox="0 0 19.6 12.29">
  <g id="Group_67814" data-name="Group 67814" transform="translate(0 0)">
    <g id="Group_67812" data-name="Group 67812" transform="translate(0)">
      <path id="Path_62988" data-name="Path 62988" d="M26.366,19.511a.7.7,0,0,0,.495-1.195l-4.95-4.95,4.95-4.95a.7.7,0,0,0-.99-.99l-5.445,5.445a.7.7,0,0,0,0,.99l5.445,5.445A.7.7,0,0,0,26.366,19.511Z" transform="translate(-20.222 -7.222)" fill="#3a3560"/>
    </g>
    <g id="Group_67813" data-name="Group 67813" transform="translate(0 5.445)">
      <path id="Path_62989" data-name="Path 62989" d="M2.7,16.4H20.9a.7.7,0,1,0,0-1.4H2.7a.7.7,0,1,0,0,1.4Z" transform="translate(-2 -15)" fill="#3a3560"/>
    </g>
  </g>
</svg>
