<svg xmlns="http://www.w3.org/2000/svg" width="20.85" height="19.304" viewBox="0 0 20.85 19.304">
  <g id="Group_1" data-name="Group 1" transform="translate(-1525.875 -45.875)">
    <g id="metamask-seeklogo.com" transform="translate(1525 45)">
      <path id="Path_38" data-name="Path 38" d="M27.872,1,19.824,6.954l1.5-3.509Z" transform="translate(-7.29)" fill="#e17726" stroke="#e17726" stroke-linecap="round" stroke-linejoin="round" stroke-width="0.25"/>
      <path id="Path_39" data-name="Path 39" d="M2.663,1l7.976,6.01L9.214,3.445Z" transform="translate(-0.644)" fill="#e27625" stroke="#e27625" stroke-linecap="round" stroke-linejoin="round" stroke-width="0.25"/>
      <path id="Path_40" data-name="Path 40" d="M26.876,23.533,24.735,26.8l4.585,1.262L30.633,23.6Z" transform="translate(-9.192 -8.727)" fill="#e27625" stroke="#e27625" stroke-linecap="round" stroke-linejoin="round" stroke-width="0.25"/>
      <path id="Path_41" data-name="Path 41" d="M1.273,23.6l1.305,4.462L7.155,26.8,5.022,23.533Z" transform="translate(-0.106 -8.727)" fill="#e27625" stroke="#e27625" stroke-linecap="round" stroke-linejoin="round" stroke-width="0.25"/>
      <path id="Path_42" data-name="Path 42" d="M9.665,12.774,8.392,14.695l4.537.206-.151-4.883Z" transform="translate(-2.863 -3.493)" fill="#e27625" stroke="#e27625" stroke-linecap="round" stroke-linejoin="round" stroke-width="0.25"/>
      <path id="Path_43" data-name="Path 43" d="M23.087,12.738l-3.16-2.811-.1,4.938,4.537-.206Z" transform="translate(-7.29 -3.458)" fill="#e27625" stroke="#e27625" stroke-linecap="round" stroke-linejoin="round" stroke-width="0.25"/>
      <path id="Path_44" data-name="Path 44" d="M10.873,26.87l2.746-1.326L11.255,23.7Z" transform="translate(-3.824 -8.792)" fill="#e27625" stroke="#e27625" stroke-linecap="round" stroke-linejoin="round" stroke-width="0.25"/>
      <path id="Path_45" data-name="Path 45" d="M20.266,25.544,23,26.87,22.63,23.7Z" transform="translate(-7.461 -8.792)" fill="#e27625" stroke="#e27625" stroke-linecap="round" stroke-linejoin="round" stroke-width="0.25"/>
      <path id="Path_46" data-name="Path 46" d="M23,28.034l-2.738-1.326.223,1.778-.024.754Z" transform="translate(-7.461 -9.957)" fill="#d5bfb2" stroke="#d5bfb2" stroke-linecap="round" stroke-linejoin="round" stroke-width="0.25"/>
      <path id="Path_47" data-name="Path 47" d="M10.873,28.034l2.547,1.207-.016-.754.215-1.778Z" transform="translate(-3.824 -9.957)" fill="#d5bfb2" stroke="#d5bfb2" stroke-linecap="round" stroke-linejoin="round" stroke-width="0.25"/>
      <path id="Path_48" data-name="Path 48" d="M13.669,20.9l-2.277-.667L13,19.491Z" transform="translate(-4.025 -7.161)" fill="#233447" stroke="#233447" stroke-linecap="round" stroke-linejoin="round" stroke-width="0.25"/>
      <path id="Path_49" data-name="Path 49" d="M20.513,20.9l.669-1.405,1.616.738Z" transform="translate(-7.557 -7.161)" fill="#233447" stroke="#233447" stroke-linecap="round" stroke-linejoin="round" stroke-width="0.25"/>
      <path id="Path_50" data-name="Path 50" d="M9.525,26.8l.4-3.271L7.392,23.6Z" transform="translate(-2.475 -8.727)" fill="#cc6228" stroke="#cc6228" stroke-linecap="round" stroke-linejoin="round" stroke-width="0.25"/>
      <path id="Path_51" data-name="Path 51" d="M24.1,23.533l.39,3.271,2.141-3.2Z" transform="translate(-8.946 -8.727)" fill="#cc6228" stroke="#cc6228" stroke-linecap="round" stroke-linejoin="round" stroke-width="0.25"/>
      <path id="Path_52" data-name="Path 52" d="M24.361,17.651l-4.537.206.422,2.326.669-1.405,1.616.738Z" transform="translate(-7.29 -6.449)" fill="#cc6228" stroke="#cc6228" stroke-linecap="round" stroke-linejoin="round" stroke-width="0.25"/>
      <path id="Path_53" data-name="Path 53" d="M10.231,19.516l1.608-.738.669,1.405.422-2.326-4.537-.206Z" transform="translate(-2.863 -6.449)" fill="#cc6228" stroke="#cc6228" stroke-linecap="round" stroke-linejoin="round" stroke-width="0.25"/>
      <path id="Path_54" data-name="Path 54" d="M8.392,17.651l1.9,3.708-.064-1.842Z" transform="translate(-2.863 -6.449)" fill="#e27525" stroke="#e27525" stroke-linecap="round" stroke-linejoin="round" stroke-width="0.25"/>
      <path id="Path_55" data-name="Path 55" d="M24.2,19.516l-.072,1.842,1.9-3.708Z" transform="translate(-8.956 -6.449)" fill="#e27525" stroke="#e27525" stroke-linecap="round" stroke-linejoin="round" stroke-width="0.25"/>
      <path id="Path_56" data-name="Path 56" d="M15.531,17.987l-.422,2.326.533,2.747.119-3.62Z" transform="translate(-5.464 -6.579)" fill="#e27525" stroke="#e27525" stroke-linecap="round" stroke-linejoin="round" stroke-width="0.25"/>
      <path id="Path_57" data-name="Path 57" d="M19.683,17.987l-.223,1.445.111,3.628.533-2.747Z" transform="translate(-7.15 -6.579)" fill="#e27525" stroke="#e27525" stroke-linecap="round" stroke-linejoin="round" stroke-width="0.25"/>
      <path id="Path_58" data-name="Path 58" d="M20.176,21.363l-.533,2.747.382.27,2.364-1.842L22.46,20.7Z" transform="translate(-7.22 -7.628)" fill="#f5841f" stroke="#f5841f" stroke-linecap="round" stroke-linejoin="round" stroke-width="0.25"/>
      <path id="Path_59" data-name="Path 59" d="M11.393,20.7l.064,1.842,2.364,1.842.382-.27-.533-2.747Z" transform="translate(-4.025 -7.628)" fill="#f5841f" stroke="#f5841f" stroke-linecap="round" stroke-linejoin="round" stroke-width="0.25"/>
      <path id="Path_60" data-name="Path 60" d="M16.827,30.079l.024-.754-.207-.175H13.6l-.2.175.016.754-2.547-1.207.891.73,1.807,1.246h3.1L18.483,29.6l.884-.73Z" transform="translate(-3.824 -10.795)" fill="#c0ac9d" stroke="#c0ac9d" stroke-linecap="round" stroke-linejoin="round" stroke-width="0.25"/>
      <path id="Path_61" data-name="Path 61" d="M18.228,26.537l-.382-.27H15.6l-.382.27L15,28.316l.2-.175h3.041l.207.175Z" transform="translate(-5.424 -9.786)" fill="#161616" stroke="#161616" stroke-linecap="round" stroke-linejoin="round" stroke-width="0.25"/>
      <path id="Path_62" data-name="Path 62" d="M28.385,7.344l.677-3.287L28.043,1,20.266,6.756l2.993,2.525,4.227,1.231.931-1.088-.406-.294.645-.587-.493-.381.645-.492Z" transform="translate(-7.461)" fill="#763e1a" stroke="#763e1a" stroke-linecap="round" stroke-linejoin="round" stroke-width="0.25"/>
      <path id="Path_63" data-name="Path 63" d="M1,4.057l.685,3.287-.438.326.653.492-.494.381.645.587-.406.294.931,1.088L6.8,9.281,9.8,6.756,2.019,1Z" fill="#763e1a" stroke="#763e1a" stroke-linecap="round" stroke-linejoin="round" stroke-width="0.25"/>
      <path id="Path_64" data-name="Path 64" d="M28.98,15.745l-4.227-1.231,1.274,1.921-1.9,3.708,2.515-.032H30.4Z" transform="translate(-8.956 -5.234)" fill="#f5841f" stroke="#f5841f" stroke-linecap="round" stroke-linejoin="round" stroke-width="0.25"/>
      <path id="Path_65" data-name="Path 65" d="M6.908,14.515,2.682,15.745,1.273,20.112H5.022l2.515.032-1.9-3.708Z" transform="translate(-0.106 -5.234)" fill="#f5841f" stroke="#f5841f" stroke-linecap="round" stroke-linejoin="round" stroke-width="0.25"/>
      <path id="Path_66" data-name="Path 66" d="M17.318,12.954,17.589,8.3l1.226-3.311h-5.46L14.58,8.3l.271,4.652.1,1.461.008,3.612h2.245l.008-3.612Z" transform="translate(-4.785 -1.546)" fill="#f5841f" stroke="#f5841f" stroke-linecap="round" stroke-linejoin="round" stroke-width="0.25"/>
    </g>
  </g>
</svg>
