<svg xmlns="http://www.w3.org/2000/svg" width="21.203" height="19.348" viewBox="0 0 21.203 19.348">
  <g id="logout_1_" data-name="logout (1)" transform="translate(0 -22.397)">
    <g id="Group_49190" data-name="Group 49190" transform="translate(6.179 29.85)">
      <g id="Group_49189" data-name="Group 49189">
        <path id="Path_62365" data-name="Path 62365" d="M163.957,204.072l-2.269-1.6a.622.622,0,0,0-.979.508v.978H149.816a.621.621,0,1,0,0,1.242h10.893v.978a.622.622,0,0,0,.979.508l2.269-1.6A.622.622,0,0,0,163.957,204.072Z" transform="translate(-149.195 -202.358)" fill="#3a3560"/>
      </g>
    </g>
    <g id="Group_49192" data-name="Group 49192" transform="translate(0 22.397)">
      <g id="Group_49191" data-name="Group 49191" transform="translate(0 0)">
        <path id="Path_62366" data-name="Path 62366" d="M17.827,36.06a.621.621,0,0,0-.849.227,8.432,8.432,0,1,1,0-8.431.621.621,0,0,0,1.075-.622,9.674,9.674,0,1,0,0,9.675A.621.621,0,0,0,17.827,36.06Z" transform="translate(0 -22.397)" fill="#3a3560"/>
      </g>
    </g>
  </g>
</svg>
